# xmcd
#
# Track frame offsets:
#	150
#	12402
#	23541
#	37050
#	50657
#	62736
#	74480
#	87619
#	100308
#	111814
#	124944
#	137479
#	149694
#	160156
#	171328
#	185398
#	193529
#	206028
#	216403
#	227909
#
# Disc length: 3194 seconds
#
# Revision: 1
# Processed by: cddbd v1.5.2PL0 Copyright (c) Steve Scherf et al.
# Submitted via: audiograbber 1.83.01
#
DISCID=350c7814
DTITLE=Williamson II,Sonny Boy - Nine below zero 1951-1962 [CD 1)
DYEAR=2017
DGENRE=Blues
TTITLE0=Cool,cool blues
TTITLE1=Do it if you wanna
TTITLE2=Crazy 'bout you,baby
TTITLE3=Eyesight to the blind
TTITLE4=Pontiac Blues
TTITLE5=Sonny Boy's Christmas Blues
TTITLE6=Mighty long time
TTITLE7=Nine below zero
TTITLE8=Too close together
TTITLE9=Cat hop
TTITLE10=She's crazy (take 1)
TTITLE11=309
TTITLE12=Sonny's rhythm (take 1)
TTITLE13=City of New Orleans
TTITLE14=Keep it to yourself (take 1)
TTITLE15=Going in your direction (take 4)
TTITLE16=She's crazy (take 2)
TTITLE17=Sonny's rhythm (take 2)
TTITLE18=Keep it to yourself (take 2)
TTITLE19=Going in your direction (take 5)
EXTD=
EXTT0=
EXTT1=
EXTT2=
EXTT3=
EXTT4=
EXTT5=
EXTT6=
EXTT7=
EXTT8=
EXTT9=
EXTT10=
EXTT11=
EXTT12=
EXTT13=
EXTT14=
EXTT15=
EXTT16=
EXTT17=
EXTT18=
EXTT19=
PLAYORDER=
